<?xml version="1.0" encoding="UTF-8" standalone="no"?><!-- Generator: Gravit.io --><svg xmlns="http://www.w3.org/2000/svg" xmlns:xlink="http://www.w3.org/1999/xlink" style="isolation:isolate" viewBox="0 0 430 324" width="430pt" height="324pt"><defs><clipPath id="_clipPath_E3j17j2Tix3HVBLQrUng9haKiRF3oP6R"><rect width="430" height="324"/></clipPath></defs><g clip-path="url(#_clipPath_E3j17j2Tix3HVBLQrUng9haKiRF3oP6R)"><path d=" M 218.636 5.504 L 45.385 6 Q 22.382 6 25.382 40 Q 28.383 74 39.384 160 Q 45.385 182 64.388 183 Q 83.391 184 146.401 183 Q 166.404 188 182.407 149 C 197.389 112.487 205.357 97.887 218.636 97.025 L 218.636 97.025 L 219.78 97.025 L 218.636 97.025 C 231.913 97.887 241.024 112.487 256.004 149 Q 272.004 188 292.004 183 Q 355.004 184 374.004 183 Q 393.004 182 399.004 160 Q 410.004 74 413.004 40 Q 416.004 6 393.004 6 L 218.636 5.504 L 218.636 5.504 Z " fill="rgb(232,232,232)" vector-effect="non-scaling-stroke" stroke-width="1" stroke="rgb(0,0,0)" stroke-linejoin="miter" stroke-linecap="square" stroke-miterlimit="3"/><circle vector-effect="non-scaling-stroke" cx="328.0038461538461" cy="86.99999999999991" r="40" fill="rgb(255,255,255)" stroke-width="1" stroke="rgb(0,0,0)" stroke-linejoin="miter" stroke-linecap="butt" stroke-miterlimit="3"/><ellipse vector-effect="non-scaling-stroke" cx="110.39537995959472" cy="86.99999999999991" rx="40.00619924952329" ry="40" fill="rgb(255,255,255)" stroke-width="1" stroke="rgb(0,0,0)" stroke-linejoin="miter" stroke-linecap="butt" stroke-miterlimit="3"/><path d=" M 295.004 86 Q 297.629 70.375 304.004 65 C 310.379 59.625 316.254 56.5 321.004 56 Q 325.754 55.5 328.004 56 L 328.004 69 Q 324.254 67.875 322.004 69 C 319.754 70.125 313.129 73.25 311.004 78 Q 308.879 82.75 309.004 87 L 295.004 86 Z " fill="rgb(0,0,0)" vector-effect="non-scaling-stroke" stroke-width="1" stroke="rgb(0,0,0)" stroke-linejoin="miter" stroke-linecap="butt" stroke-miterlimit="3"/><path d=" M 77.395 86 Q 80.02 70.375 86.395 65 C 92.77 59.625 98.645 56.5 103.395 56 Q 108.145 55.5 110.395 56 L 110.395 69 Q 106.645 67.875 104.395 69 C 102.145 70.125 95.52 73.25 93.395 78 Q 91.27 82.75 91.395 87 L 77.395 86 Z " fill="rgb(0,0,0)" vector-effect="non-scaling-stroke" stroke-width="1" stroke="rgb(0,0,0)" stroke-linejoin="miter" stroke-linecap="butt" stroke-miterlimit="3"/><path d=" M 54.42 317.761 L 54.42 313.15 L 117.066 313.15 L 117.066 217.909 L 81.291 294.547 L 45.516 217.75 L 45.516 317.92 L 40.746 317.761 L 40.746 206.461 L 45.516 206.461 L 81.291 283.258 L 117.066 206.62 L 121.836 206.461 L 121.836 317.92 L 54.42 317.761 L 54.42 317.761 Z  M 210.399 254.956 L 210.399 259.726 L 163.176 259.726 L 211.83 211.39 L 158.088 211.39 L 158.088 313.15 L 219.78 313.15 L 219.78 317.92 L 153.318 317.92 L 153.318 206.62 L 223.437 206.62 L 174.783 254.956 L 210.399 254.956 L 210.399 254.956 Z  M 257.304 317.92 L 257.304 313.15 L 301.188 313.15 L 281.949 260.362 L 290.853 255.274 L 290.853 255.274 Q 301.824 249.232 301.824 236.035 L 301.824 236.035 L 301.824 236.035 Q 301.824 211.39 264.3 211.39 L 264.3 211.39 L 249.672 211.39 L 249.672 317.92 L 244.902 317.92 L 244.902 206.62 L 264.3 206.62 L 264.3 206.62 Q 285.288 206.62 295.941 214.332 L 295.941 214.332 L 295.941 214.332 Q 306.594 222.043 306.594 236.035 L 306.594 236.035 L 306.594 236.035 Q 306.594 251.935 293.238 259.408 L 293.238 259.408 L 287.832 262.429 L 308.025 317.92 L 257.304 317.92 L 257.304 317.92 Z  M 389.433 254.956 L 389.433 259.726 L 342.21 259.726 L 390.864 211.39 L 337.122 211.39 L 337.122 313.15 L 398.814 313.15 L 398.814 317.92 L 332.352 317.92 L 332.352 206.62 L 402.471 206.62 L 353.817 254.956 L 389.433 254.956 L 389.433 254.956 Z " fill="rgb(255,255,255)"/></g></svg>